<svg width="35" height="35" viewBox="0 0 35 35" fill="none" xmlns="http://www.w3.org/2000/svg">
<g clip-path="url(#clip0_357_9551)">
<path d="M17.3752 18.859C17.4114 18.859 17.4476 18.859 17.4911 18.859C17.5056 18.859 17.5201 18.859 17.5346 18.859C17.5564 18.859 17.5853 18.859 17.6071 18.859C19.7307 18.8227 21.4485 18.0762 22.7168 16.6484C25.5073 13.5028 25.0434 8.11038 24.9927 7.59578C24.8115 3.73266 22.985 1.88445 21.4775 1.02195C20.354 0.37689 19.0422 0.0289915 17.5781 0H17.5274C17.5201 0 17.5056 0 17.4984 0H17.4549C16.6504 0 15.0703 0.130462 13.5555 0.992959C12.0335 1.85546 10.178 3.70367 9.99681 7.59578C9.94608 8.11038 9.48222 13.5028 12.2726 16.6484C13.5338 18.0762 15.2515 18.8227 17.3752 18.859ZM11.932 7.77697C11.932 7.75523 11.9392 7.73349 11.9392 7.71899C12.1784 2.52226 15.8676 1.96417 17.4476 1.96417H17.4766C17.4911 1.96417 17.5129 1.96417 17.5346 1.96417C19.4915 2.00766 22.8183 2.80493 23.043 7.71899C23.043 7.74073 23.043 7.76248 23.0502 7.77697C23.0575 7.82771 23.5648 12.7563 21.26 15.351C20.3468 16.3802 19.1291 16.8876 17.5274 16.9021C17.5129 16.9021 17.5056 16.9021 17.4911 16.9021C17.4766 16.9021 17.4694 16.9021 17.4549 16.9021C15.8603 16.8876 14.6355 16.3802 13.7295 15.351C11.4319 12.7708 11.9248 7.82046 11.932 7.77697Z" fill="black"/>
<path d="M32.3842 27.7812V27.803C32.3915 28.1799 32.3987 30.115 32.0363 31.079C31.9638 31.2675 31.8261 31.4269 31.6594 31.5356L31.6564 31.5376C31.3972 31.7019 26.1933 35.0001 17.5116 35.0001C8.79238 35.0001 3.36372 31.5356 3.36372 31.5356C3.50073 30.2944 4.57411 30.2944 4.57411 30.2944C6.30073 30.1002 10.2272 33.0504 17.5043 33.0504C24.5058 33.0504 29.1082 30.7456 30.2823 30.0788C30.3983 29.499 30.4418 28.4915 30.4345 27.8392C30.4273 27.7812 30.4273 27.7232 30.4273 27.658C30.3766 26.0055 30.1881 24.2008 28.4994 23.5992C24.8899 22.6715 22.0053 20.6638 21.882 20.5768C21.4399 20.2652 21.3312 19.6563 21.6429 19.2142C21.9545 18.7721 22.5633 18.6634 23.0055 18.975C23.0345 18.9968 25.7524 20.8812 29.0212 21.7147C29.0429 21.722 29.0719 21.7292 29.0937 21.7365C32.2318 22.8066 32.333 26.149 32.3767 27.5898L32.377 27.6C32.377 27.6653 32.3842 27.7232 32.3842 27.7812Z" fill="black"/>
<path d="M4.57411 27.6508C4.57411 27.716 4.56687 27.774 4.56687 27.832C3.73977 28.2574 2.92246 27.9851 2.61719 27.7957V27.774C2.62444 27.716 2.62444 27.658 2.62444 27.5928L2.62477 27.5819C2.66842 26.1479 2.77014 22.8064 5.90772 21.7292C5.92947 21.722 5.95121 21.7147 5.9802 21.7075C9.26349 20.874 11.9669 18.9895 11.9959 18.9678C12.4381 18.6561 13.0469 18.7649 13.3585 19.207C13.6702 19.6491 13.5615 20.2579 13.1194 20.5696C12.9961 20.6493 10.1115 22.6642 6.50205 23.5919C4.81329 24.1935 4.62485 25.9982 4.57411 27.6508Z" fill="black"/>
</g>
<defs>
<clipPath id="clip0_357_9551">
<rect width="35" height="35" fill="white"/>
</clipPath>
</defs>
</svg>
