<svg width="35" height="35" viewBox="0 0 35 35" fill="none" xmlns="http://www.w3.org/2000/svg">
<path d="M12.2387 5.29968C14.1242 3.19842 17.0659 2.39851 19.755 3.25578C22.4441 4.11304 24.3811 6.4682 24.7043 9.27359L24.9208 9.27791C27.0246 9.3619 29.4296 10.6837 30.1108 14.4012L31.2126 22.9644C31.6354 25.9384 31.0845 28.233 29.8033 29.7585C28.5222 31.2839 26.4211 32.0274 23.3975 32.0274H11.7262C9.33782 32.3271 6.95807 31.4106 5.38688 29.5859C3.8157 27.7613 3.26173 25.2707 3.91117 22.9515L3.94302 22.8025C4.09457 22.2719 4.61848 21.9218 5.17951 22.0029C5.79156 22.0914 6.21601 22.6596 6.12757 23.272C5.72718 24.9502 6.07805 26.7196 7.08844 28.1176C8.32984 29.295 10.0068 29.8993 11.7134 29.7841H23.3975C25.7164 29.7841 27.3179 29.297 28.1506 28.2843C28.9834 27.2716 29.3165 25.5794 28.9834 23.272L27.8944 14.7986C27.51 12.7476 26.3186 11.4657 24.7043 11.4657H10.4066C8.86924 11.4657 7.67777 12.7476 7.20374 14.8883L6.89626 16.7727C6.75505 17.3485 6.1925 17.7167 5.6087 17.6154C5.0249 17.5141 4.61908 16.9779 4.67986 16.3882L5.00015 14.4653C5.84572 10.5555 8.34397 9.27359 10.4066 9.27359H22.4239C22.2479 8.13759 21.687 7.09664 20.8352 6.32521C18.8112 4.51395 15.7033 4.68608 13.8914 6.70978V6.83797L13.7658 6.95408C13.4996 7.16505 13.1493 7.24683 12.8125 7.16945C12.4195 7.07918 12.1045 6.78598 11.9861 6.40031C11.8678 6.01463 11.9641 5.59508 12.2387 5.29968ZM21.7838 15.0551L21.9498 15.0806C22.117 15.1193 22.277 15.1842 22.4239 15.2729C22.5549 15.3764 22.6712 15.4971 22.7698 15.6319C22.8253 15.694 22.8649 15.7688 22.8851 15.8498C22.9241 15.9261 22.9501 16.0084 22.9619 16.0933C22.9752 16.1783 22.9752 16.2648 22.9619 16.3497C22.9663 16.5179 22.9312 16.6847 22.8595 16.8368C22.7952 17.0021 22.6893 17.1478 22.552 17.2599C22.3154 17.5014 21.9931 17.6396 21.6552 17.6444C21.4842 17.6376 21.3154 17.603 21.1555 17.5419C20.8884 17.3831 20.688 17.1325 20.5918 16.8368C20.524 16.6838 20.4933 16.5169 20.5021 16.3497C20.4891 16.2648 20.4891 16.1783 20.5021 16.0933V15.8498L20.6302 15.6319C20.6667 15.5572 20.7192 15.4915 20.784 15.4396L20.9762 15.2729C21.0476 15.2244 21.1251 15.1856 21.2068 15.1575C21.2838 15.1204 21.3658 15.0945 21.4502 15.0806C21.6145 15.0423 21.7855 15.0423 21.9498 15.0806L21.7838 15.0551ZM13.5972 15.0679L13.7633 15.0934C13.8481 15.1053 13.9304 15.1313 14.0067 15.1704C14.0854 15.196 14.1591 15.235 14.2245 15.2857C14.3012 15.33 14.3704 15.3863 14.4295 15.4524C14.4942 15.5044 14.5467 15.57 14.5832 15.6447C14.633 15.7129 14.6759 15.7859 14.7113 15.8626L14.7882 16.1062C14.7951 16.1915 14.7951 16.2772 14.7882 16.3625C14.7882 17.0705 14.2146 17.6444 13.507 17.6444C13.178 17.633 12.8661 17.4953 12.6358 17.2599C12.5146 17.1391 12.4188 16.9953 12.354 16.8368C12.2927 16.6818 12.2623 16.5164 12.2643 16.3497C12.2511 16.2648 12.2511 16.1783 12.2643 16.0933C12.2762 16.0084 12.3022 15.9261 12.3412 15.8498C12.3668 15.771 12.4058 15.6973 12.4565 15.6319C12.4929 15.5572 12.5454 15.4915 12.6102 15.4396C12.6663 15.379 12.7311 15.3272 12.8024 15.2857C12.8678 15.235 12.9415 15.196 13.0202 15.1704C13.0965 15.1313 13.1787 15.1053 13.2636 15.0934C13.428 15.0552 13.5989 15.0552 13.7633 15.0934L13.5972 15.0679Z" fill="black"/>
</svg>
