<svg width="30" height="30" viewBox="0 0 30 30" fill="none" xmlns="http://www.w3.org/2000/svg">
<path d="M27.8999 13.5565L27.123 10.4489C27.3354 10.4038 27.4948 10.2154 27.4948 9.98962V9.48858C27.4948 8.40073 26.6097 7.51573 25.5219 7.51573H21.9833V6.48226C21.9833 5.94694 21.5479 5.51147 21.0125 5.51147H2.97492C2.43961 5.51147 2.00414 5.94694 2.00414 6.48226V15C2.00414 15.2594 2.21443 15.4698 2.47389 15.4698C2.73328 15.4698 2.94363 15.2595 2.94363 15V6.48226C2.94363 6.46497 2.95764 6.45097 2.97492 6.45097H21.0125C21.0298 6.45097 21.0438 6.46497 21.0438 6.48226V15.0001C21.0438 15.2595 21.2541 15.4699 21.5135 15.4699C21.7729 15.4699 21.9833 15.2596 21.9833 15.0001V14.4676H27.5244C27.5249 14.4676 27.5252 14.4678 27.5256 14.4678C27.5261 14.4678 27.5265 14.4677 27.5269 14.4677C28.2088 14.4682 28.7878 14.9157 28.9866 15.5324H27.526C27.2666 15.5324 27.0563 15.7427 27.0563 16.0022V17.0042C27.0563 17.8158 27.7165 18.476 28.5281 18.476H29.0604V20.5428H27.8322C27.4287 19.3778 26.3212 18.5386 25.0208 18.5386C23.7203 18.5386 22.6127 19.3778 22.2093 20.5428H21.9831V17.0042C21.9831 16.7448 21.7729 16.5344 21.5134 16.5344C21.254 16.5344 21.0437 16.7447 21.0437 17.0042V20.5427H11.2979C10.8944 19.3777 9.78691 18.5385 8.48643 18.5385C7.18594 18.5385 6.0784 19.3777 5.67498 20.5427H2.97492C2.95764 20.5427 2.94363 20.5287 2.94363 20.5114V19.478H4.97912C5.23852 19.478 5.44887 19.2677 5.44887 19.0083C5.44887 18.7488 5.23857 18.5385 4.97912 18.5385H0.469746C0.210352 18.5385 0 18.7488 0 19.0083C0 19.2677 0.210293 19.478 0.469746 19.478H2.0042V20.5114C2.0042 21.0467 2.43967 21.4822 2.97498 21.4822H5.51232C5.51221 21.4926 5.5115 21.503 5.5115 21.5135C5.5115 23.1539 6.84609 24.4884 8.48643 24.4884C10.1268 24.4884 11.4613 23.1539 11.4613 21.5135C11.4613 21.5029 11.4606 21.4926 11.4605 21.4822H22.0467C22.0465 21.4926 22.0458 21.503 22.0458 21.5135C22.0458 23.1539 23.3804 24.4884 25.0208 24.4884C26.6611 24.4884 27.9957 23.1539 27.9957 21.5135C27.9957 21.5029 27.995 21.4926 27.9949 21.4822H29.5302C29.7896 21.4822 29.9999 21.2719 29.9999 21.0125V16.002C30 14.765 29.0873 13.7372 27.8999 13.5565ZM21.9833 8.45517H25.5219C26.0917 8.45517 26.5553 8.91876 26.5553 9.48858V9.51987H21.9833V8.45517ZM21.9833 13.5282V10.4593H26.1572L26.9245 13.5282H21.9833ZM8.48643 23.5491C7.36406 23.5491 6.45094 22.636 6.45094 21.5136C6.45094 20.3912 7.36406 19.4781 8.48643 19.4781C9.60879 19.4781 10.5219 20.3912 10.5219 21.5136C10.5219 22.636 9.60879 23.5491 8.48643 23.5491ZM25.0209 23.5491C23.8985 23.5491 22.9854 22.636 22.9854 21.5136C22.9854 20.3912 23.8985 19.4781 25.0209 19.4781C26.1432 19.4781 27.0564 20.3912 27.0564 21.5136C27.0564 22.636 26.1432 23.5491 25.0209 23.5491ZM29.0606 17.5366H28.5282C28.2346 17.5366 27.9958 17.2977 27.9958 17.0042V16.4718H29.0605V17.5366H29.0606Z" fill="#7184C8"/>
<path d="M8.48641 20.5427C7.95109 20.5427 7.51562 20.9782 7.51562 21.5135C7.51562 22.0488 7.95109 22.4843 8.48641 22.4843C9.02172 22.4843 9.45719 22.0488 9.45719 21.5135C9.45719 20.9782 9.02172 20.5427 8.48641 20.5427Z" fill="#7184C8"/>
<path d="M25.0216 20.5427C24.4863 20.5427 24.0508 20.9782 24.0508 21.5135C24.0508 22.0488 24.4863 22.4843 25.0216 22.4843C25.5569 22.4843 25.9923 22.0488 25.9923 21.5135C25.9923 20.9782 25.5569 20.5427 25.0216 20.5427Z" fill="#7184C8"/>
<path d="M19.5078 18.5386H12.4932C12.2338 18.5386 12.0234 18.7489 12.0234 19.0083C12.0234 19.2678 12.2337 19.4781 12.4932 19.4781H19.5078C19.7672 19.4781 19.9775 19.2678 19.9775 19.0083C19.9775 18.7489 19.7672 18.5386 19.5078 18.5386Z" fill="#7184C8"/>
<path d="M7.48619 16.5344H1.47365C1.21426 16.5344 1.00391 16.7447 1.00391 17.0042C1.00391 17.2636 1.2142 17.4739 1.47365 17.4739H7.48619C7.74558 17.4739 7.95593 17.2636 7.95593 17.0042C7.95593 16.7447 7.74558 16.5344 7.48619 16.5344Z" fill="#7184C8"/>
<path d="M16.336 10.1585C16.1526 9.97514 15.8551 9.97514 15.6717 10.1586L11.4945 14.3358L9.3214 12.1627C9.13794 11.9793 8.84052 11.9793 8.65712 12.1627C8.47367 12.3462 8.47367 12.6436 8.65712 12.827L11.1624 15.3322C11.2541 15.424 11.3743 15.4698 11.4945 15.4698C11.6146 15.4698 11.7349 15.424 11.8266 15.3322L16.336 10.8229C16.5194 10.6394 16.5194 10.342 16.336 10.1585Z" fill="#7184C8"/>
</svg>
