<svg width="42" height="42" viewBox="0 0 42 42" fill="none" xmlns="http://www.w3.org/2000/svg">
<path d="M10.3333 20.3334C11.0697 20.3334 11.6667 19.7365 11.6667 19.0001C11.6667 18.2637 11.0697 17.6667 10.3333 17.6667C9.59695 17.6667 9 18.2637 9 19.0001C9 19.7365 9.59695 20.3334 10.3333 20.3334Z" fill="black"/>
<path d="M31.7493 17.6667H15.5893C14.8971 17.6667 14.3359 18.2279 14.3359 18.9201V19.0801C14.3359 19.7723 14.8971 20.3334 15.5893 20.3334H31.7493C32.4415 20.3334 33.0026 19.7723 33.0026 19.0801V18.9201C33.0026 18.2279 32.4415 17.6667 31.7493 17.6667Z" fill="black"/>
<path d="M31.7467 24.3333H10.2533C9.56114 24.3333 9 24.8944 9 25.5866V25.7466C9 26.4388 9.56114 26.9999 10.2533 26.9999H31.7467C32.4389 26.9999 33 26.4388 33 25.7466V25.5866C33 24.8944 32.4389 24.3333 31.7467 24.3333Z" fill="black"/>
<path d="M31.7467 11H10.2533C9.56114 11 9 11.5611 9 12.2533V12.4133C9 13.1055 9.56114 13.6667 10.2533 13.6667H31.7467C32.4389 13.6667 33 13.1055 33 12.4133V12.2533C33 11.5611 32.4389 11 31.7467 11Z" fill="black"/>
</svg>
