<svg width="35" height="35" viewBox="0 0 35 35" fill="none" xmlns="http://www.w3.org/2000/svg">
<path d="M17.5099 5.16214C19.9092 3.62803 22.8457 3.23553 25.5522 4.0872C27.9063 4.81926 29.8637 6.5008 30.9695 8.74091C32.2625 11.456 32.4386 14.5844 31.4585 17.4322C30.5564 20.0538 29.0775 22.4304 27.1349 24.38C25.8613 25.6891 24.4888 26.8945 23.0301 27.985L22.9529 28.0506C22.4683 28.3768 21.8167 28.2487 21.486 27.7622C21.3179 27.5272 21.2504 27.2329 21.2989 26.9464C21.3474 26.6599 21.5077 26.4056 21.7434 26.2415C23.1121 25.2102 24.4025 24.0752 25.6037 22.8463C27.3336 21.1439 28.6546 19.0579 29.464 16.7506C30.2425 14.4514 30.085 11.9303 29.0265 9.75031C28.1748 8.03534 26.674 6.74785 24.8702 6.18465C22.5695 5.45172 20.0629 5.89603 18.1404 7.37757C17.7582 7.666 17.2358 7.666 16.8536 7.37757C14.932 5.89397 12.4244 5.44948 10.1238 6.18465C8.30791 6.73541 6.79223 8.01901 5.92893 9.7372C4.89438 11.9156 4.74639 14.4222 5.51717 16.7112C6.32998 19.013 7.65068 21.094 9.37748 22.7938C11.929 25.2863 14.7426 27.4844 17.7672 29.3484C18.1519 29.6202 18.3211 30.1135 18.1863 30.5702C18.0515 31.027 17.6434 31.3434 17.1753 31.3541C16.9643 31.3553 16.7579 31.2913 16.5834 31.1705C13.4326 29.2292 10.5024 26.9387 7.84623 24.3407C5.89287 22.3975 4.4085 20.0193 3.5098 17.3929C2.56361 14.5491 2.75784 11.4396 4.05025 8.74091C5.15607 6.5008 7.11352 4.81926 9.46756 4.0872C12.1741 3.23553 15.1106 3.62803 17.5099 5.16214ZM23.008 9.47465L23.1717 9.47502C25.0904 10.0921 26.4561 11.8247 26.6331 13.8666L26.6414 14.0377C26.6345 14.2649 26.5569 14.4858 26.4176 14.6671C26.2435 14.8938 25.9874 15.0399 25.7066 15.0726C25.1173 15.1502 24.5771 14.7286 24.4971 14.1287C24.4433 12.9173 23.6514 11.8695 22.5154 11.5069C22.0931 11.2383 21.9055 10.7105 22.0611 10.2287C22.2167 9.74688 22.6753 9.43569 23.1717 9.47502L23.008 9.47465Z" fill="black"/>
</svg>
