<svg width="25" height="27" viewBox="0 0 25 27" fill="none" xmlns="http://www.w3.org/2000/svg">
<path d="M24.7822 24.7251L18.7068 18.6497C20.3365 16.7761 21.3232 14.3315 21.3232 11.6596C21.3232 5.77827 16.5394 1 10.6636 1C4.78218 1 0.00390625 5.78381 0.00390625 11.6596C0.00390625 17.5355 4.78772 22.3193 10.6636 22.3193C13.3354 22.3193 15.78 21.3326 17.6536 19.7029L23.729 25.7783C23.8731 25.9224 24.0671 26 24.2556 26C24.444 26 24.638 25.9279 24.7822 25.7783C25.0704 25.49 25.0704 25.0133 24.7822 24.7251ZM1.49504 11.6596C1.49504 6.60421 5.60812 2.49667 10.658 2.49667C15.7134 2.49667 19.821 6.60976 19.821 11.6596C19.821 16.7095 15.7134 20.8282 10.658 20.8282C5.60812 20.8282 1.49504 16.7151 1.49504 11.6596Z" fill="black"/>
</svg>
