<svg width="30" height="30" viewBox="0 0 30 30" fill="none" xmlns="http://www.w3.org/2000/svg">
<path d="M24.3695 19.6582C23.514 18.7793 21.0824 17.1328 19.4886 17.1328C19.1195 17.1328 18.7972 17.2148 18.5336 17.3848C17.7543 17.8828 17.1332 18.2695 16.8343 18.2695C16.6703 18.2695 16.4945 18.123 16.1078 17.7891L16.0433 17.7305C14.9711 16.7988 14.7425 16.5586 14.3265 16.125L14.2211 16.0137C14.1449 15.9375 14.0804 15.8672 14.016 15.8027C13.6527 15.4277 13.389 15.1582 12.4574 14.1035L12.4164 14.0566C11.9711 13.5527 11.6781 13.2246 11.6605 12.9844C11.6429 12.75 11.848 12.3691 12.3695 11.6602C13.0023 10.8047 13.0258 9.75 12.4457 8.52539C11.9828 7.55859 11.2269 6.63281 10.559 5.81836L10.5004 5.74805C9.92614 5.04492 9.25817 4.69336 8.51403 4.69336C7.68786 4.69336 7.00231 5.13867 6.63903 5.37305C6.60973 5.39062 6.58044 5.41406 6.55114 5.43164C5.73668 5.94727 5.14489 6.65625 4.92223 7.37695C4.58825 8.46094 4.36559 9.86719 5.9652 12.791C7.34801 15.3223 8.60192 17.0215 10.5941 19.0664C12.4691 20.9883 13.3011 21.6094 15.1644 22.957C17.2386 24.457 19.2308 25.3184 20.6254 25.3184C21.9203 25.3184 22.9398 25.3184 24.3929 23.5664C25.9164 21.7266 25.2836 20.6016 24.3695 19.6582ZM23.6957 22.9336C22.5238 24.3516 21.85 24.3516 20.6312 24.3516C19.4418 24.3516 17.5961 23.5312 15.6976 22.166C13.8812 20.8535 13.0726 20.25 11.2504 18.3809C9.32262 16.4062 8.10973 14.7598 6.77379 12.3164C5.36168 9.73242 5.51989 8.60156 5.807 7.66992C5.95934 7.17187 6.41637 6.63867 7.03747 6.25195C7.06676 6.23437 7.09606 6.21094 7.13122 6.19336C7.44176 5.99414 7.95739 5.66016 8.51989 5.66016C8.98864 5.66016 9.40466 5.89453 9.80309 6.38086L9.86169 6.45117C11.3558 8.2793 12.5218 9.89648 11.6429 11.0918C11.0218 11.9297 10.6937 12.498 10.7465 13.084C10.7933 13.6523 11.1742 14.0801 11.7484 14.7246L11.7894 14.7715C12.7328 15.8379 13.0023 16.1191 13.3773 16.5C13.4418 16.5644 13.5062 16.6348 13.5824 16.7109L13.6879 16.8223C14.1215 17.2734 14.3617 17.5195 15.4633 18.4863L15.5277 18.5449C15.9965 18.9551 16.3422 19.2539 16.8461 19.2539C17.3675 19.2539 17.9418 18.9258 19.0316 18.2285C19.1429 18.1582 19.3011 18.1172 19.5004 18.1172C20.7718 18.1172 22.9633 19.5703 23.7308 20.3613C24.434 21.0762 24.7855 21.6152 23.6957 22.9336V22.9336Z" fill="#7184C8"/>
</svg>
