<svg width="207" height="65" viewBox="0 0 207 65" fill="none" xmlns="http://www.w3.org/2000/svg">
<path fill-rule="evenodd" clip-rule="evenodd" d="M37.2715 1.44434C35.5979 4.66945 36.9252 6.60448 36.9646 10.0599C36.9946 12.6992 35.9937 15.4274 34.0674 17.1356C33.2521 17.8593 31.9228 18.4364 30.4239 18.5344C28.6962 18.6473 28.8077 18.4379 28.557 17.8459C27.7098 15.8458 28.4942 13.6969 29.5543 12.036C30.554 10.4689 30.8166 10.4488 31.7745 9.29983C30.3771 9.72092 27.8924 11.9518 27.2062 13.5018C25.3855 17.6152 28.3223 20.7213 29.7467 24.328C30.9477 27.3674 31.0234 31.0249 30.1036 34.2887C29.5886 36.1157 29.1089 37.019 29.2285 39.1413C29.326 40.8642 29.7418 42.3025 30.2984 43.6847C35.1435 43.4383 43.2293 38.9583 41.827 33.266C40.5881 27.8705 42.2977 23.9571 47.0692 21.0137C48.7654 19.9669 52.6154 18.4331 54.6664 18.2745C53.7498 20.001 53.3279 21.4808 53.5105 23.5635C53.6978 25.6974 54.394 27.1217 53.9564 29.4705C53.6272 31.237 52.5416 32.7049 51.4255 33.5064C50.271 34.3365 48.0504 35.1935 46.1965 34.8281C46.0471 32.9042 46.7168 30.8329 47.4421 29.3051C48.6026 26.8594 49.0476 26.7071 49.9851 25.0477C48.6588 26.1028 49.0379 25.7115 47.9795 26.9132C47.7341 27.1917 47.6366 27.3098 47.4368 27.6059C46.7651 28.5986 46.1388 29.7019 45.7474 31.0345C43.3883 39.0766 41.5348 40.2081 38.0302 42.3203C34.415 44.4995 30.4737 45.8671 29.8997 50.3597C29.5233 53.3094 29.7422 57.5277 30.6376 59.7048L28.7737 60.2622C27.8928 59.2743 27.9166 60.1429 27.5987 59.8543C26.0825 54.4705 29.0244 46.4031 27.2709 40.2641C26.6991 38.261 25.5466 36.3504 24.4434 35.0164C22.2585 32.3749 20.1607 30.012 16.666 31.6497C11.2522 34.187 5.95883 33.9378 2.45577 28.7035C1.73132 27.6205 0.14025 24.7436 0 23.1011C2.84332 23.6937 3.71717 23.1273 6.11505 22.2083C8.13282 21.4345 9.86244 20.6235 12.3752 20.9513C14.7929 21.267 16.2207 22.0491 17.6324 23.2148C18.6899 24.0882 20.2886 26.6158 20.3365 27.8925C18.8904 27.4635 18.2364 27.3292 16.3882 28.063C15.1353 28.5601 14.2421 28.9648 12.7358 29.2008C10.5803 29.5386 8.53421 29.226 6.69052 28.2173C5.87349 27.7707 5.53234 27.3221 5.23651 27.1994C5.6164 28.0617 6.64625 29.0513 7.26578 29.5419C9.20269 31.0764 11.6738 31.0496 14.0136 30.462C15.123 30.1839 16.1252 29.7111 17.2129 29.4425C18.9247 29.0197 20.902 29.5608 22.213 30.5003C23.5787 31.4791 24.4457 32.3127 25.4739 33.5341C25.7599 33.8743 26.0576 34.2626 26.3894 34.7075L27.2592 35.9268C28.1159 34.6904 28.8852 32.2679 29.1251 30.5629C29.4168 28.487 29.012 26.1175 28.2029 24.432C27.0696 22.0728 24.2329 19.694 23.0509 15.2293C21.7803 10.4283 24.1316 7.20336 26.714 5.37177C29.224 3.59211 33.4426 1.92511 37.2717 1.44434H37.2715Z" fill="white"/>
<path d="M73.66 29.5149V40.8156H70.5745V32.2136H64.9174V40.8156H61.8317V29.5149H73.6602H73.66ZM85.1629 29.5149H88.2484V40.8156H85.1629V33.563L79.1457 40.8156H76.06V29.5149H79.1457V36.7676L85.1629 29.5149ZM94.2485 40.8156V32.2136H89.7913V29.5149H101.808V32.2136H97.3342V40.8156H94.2487H94.2485ZM103.334 34.7268C103.334 33.9621 103.431 33.2424 103.625 32.5677C103.82 31.8933 104.16 31.3055 104.646 30.8052C105.131 30.3048 105.785 29.9086 106.608 29.6161C107.431 29.3238 108.465 29.1776 109.711 29.1776H110.328C111.574 29.1776 112.608 29.3238 113.431 29.6161C114.254 29.9084 114.908 30.3048 115.394 30.8052C115.88 31.3057 116.22 31.8933 116.414 32.5677C116.609 33.2424 116.706 33.9621 116.706 34.7268V35.604C116.706 36.3687 116.608 37.0884 116.414 37.7631C116.22 38.4375 115.88 39.0253 115.394 39.5255C114.908 40.026 114.254 40.4222 113.431 40.7147C112.609 41.007 111.574 41.1532 110.328 41.1532H109.711C108.465 41.1532 107.431 41.007 106.608 40.7147C105.786 40.4224 105.131 40.026 104.646 39.5255C104.16 39.0251 103.82 38.4375 103.625 37.7631C103.431 37.0884 103.334 36.3687 103.334 35.604V34.7268ZM106.42 35.1653C106.42 35.5925 106.44 36.0058 106.48 36.4051C106.52 36.8042 106.651 37.1556 106.874 37.4592C107.097 37.7628 107.451 38.0045 107.937 38.1846C108.423 38.3644 109.117 38.4545 110.02 38.4545C110.923 38.4545 111.617 38.3644 112.102 38.1846C112.588 38.0045 112.942 37.7628 113.165 37.4592C113.388 37.1556 113.52 36.8042 113.56 36.4051C113.6 36.0058 113.619 35.5927 113.619 35.1653C113.619 34.7381 113.599 34.3275 113.56 33.934C113.52 33.5404 113.388 33.1919 113.165 32.8883C112.942 32.5847 112.588 32.3431 112.102 32.163C111.617 31.9829 110.922 31.8931 110.02 31.8931C109.117 31.8931 108.423 31.9829 107.937 32.163C107.451 32.3431 107.097 32.5847 106.874 32.8883C106.651 33.1919 106.52 33.5406 106.48 33.934C106.44 34.3275 106.42 34.7381 106.42 35.1653ZM125.243 38.5049L122.02 34.0689V40.8156H118.934V29.5149H122.02L126.031 35.3001L130.042 29.5149H133.128V40.8156H130.042V34.0689L126.82 38.5049H125.242H125.243ZM138.614 29.5149V33.9003H144.614V29.5149H147.7V40.8156H144.614V36.5988H138.614V40.8156H135.528V29.5149H138.614ZM159.203 29.5149H162.288V40.8156H159.203V33.563L153.185 40.8156H150.1V29.5149H153.185V36.7676L159.203 29.5149ZM167.774 29.5149V33.9003H169.745L173.483 29.5149H176.5V30.1896L172.265 35.1653L176.5 40.141V40.8156H173.483L169.882 36.5988H167.774V40.8156H164.688V29.5149H167.774ZM184.06 34.7438V37.1051H178.042V34.7438H184.06ZM61.6602 54.4609C61.6602 53.6962 61.7574 52.9765 61.9515 52.3018C62.1458 51.6274 62.4772 51.0396 62.9458 50.5394C63.4145 50.0389 64.0487 49.6427 64.8487 49.3502C65.6487 49.0579 66.6545 48.9117 67.8659 48.9117H68.4831C69.2601 48.9117 70.0143 48.9595 70.7458 49.055C71.4773 49.1506 72.1972 49.2884 72.9057 49.4683V52.2177C72.5058 52.1052 72.103 52.0095 71.6971 51.931C71.2913 51.8523 70.8914 51.7876 70.497 51.7371C70.1026 51.6864 69.7255 51.6498 69.3656 51.6274C69.0057 51.6048 68.6829 51.5937 68.3971 51.5937C67.5056 51.5937 66.8171 51.6753 66.3314 51.8382C65.8457 52.0014 65.4914 52.229 65.2686 52.5213C65.0457 52.8136 64.9142 53.1623 64.8744 53.567C64.8344 53.972 64.8144 54.4161 64.8144 54.8996C64.8144 55.3831 64.8344 55.8272 64.8744 56.2322C64.9144 56.637 65.0457 56.9883 65.2686 57.2863C65.4914 57.5843 65.8457 57.8148 66.3314 57.9779C66.8173 58.1409 67.5058 58.2225 68.3971 58.2225C68.6827 58.2225 69.0055 58.2112 69.3656 58.1888C69.7255 58.1664 70.1028 58.13 70.497 58.0791C70.8914 58.0286 71.2913 57.961 71.6971 57.8768C72.103 57.7924 72.5056 57.694 72.9057 57.5816V60.3479C72.1972 60.5165 71.477 60.6486 70.7458 60.7443C70.0143 60.84 69.2601 60.8875 68.4831 60.8875H67.8659C66.6545 60.8875 65.6487 60.7413 64.8487 60.449C64.0487 60.1567 63.4145 59.7603 62.9458 59.2599C62.4772 58.7594 62.1458 58.1718 61.9515 57.4974C61.7572 56.8227 61.6602 56.103 61.6602 55.3383V54.4611V54.4609ZM74.483 60.5497V59.8751L79.5916 49.2491H82.6771L87.7857 59.8751V60.5497H85.0086L84.0145 58.3572H78.2372L77.2601 60.5497H74.483ZM82.8831 55.827L81.1345 51.9645L79.386 55.827H82.8831ZM99.9402 49.2491V53.6344H101.397L105.134 49.2491H108.151V49.9237L103.917 54.8994L108.151 59.8751V60.5497H105.134L101.534 56.3329H99.94V60.5497H96.8543V56.3329H95.243L91.6601 60.5497H88.6429V59.8751L92.8773 54.8994L88.6429 49.9237V49.2491H91.6601L95.3971 53.6344H96.8543V49.2491H99.94H99.9402ZM120.854 51.9478H112.951V53.6344H119.14V56.3331H112.951V57.8513H120.854V60.55H109.866V49.2493H120.854V51.948V51.9478ZM125.98 49.2491V53.6344H131.98V49.2491H135.066V60.5497H131.98V56.3329H125.98V60.5497H122.894V49.2491H125.98ZM149.294 63.5858H148.608V60.5497H137.466V49.2491H140.551V57.851H146.551V49.2491H149.637V57.851H151.351V62.405L149.294 63.5858ZM164.037 57.3451C164.037 57.84 163.966 58.3008 163.822 58.7282C163.68 59.1554 163.437 59.5294 163.094 59.8497C162.751 60.1703 162.285 60.4233 161.697 60.6088C161.108 60.7943 160.368 60.8871 159.477 60.8871H158.997C157.957 60.8871 156.897 60.859 155.817 60.8029C154.737 60.7466 153.706 60.6622 152.723 60.5497V49.2491H155.808V53.2971C156.368 53.2071 156.943 53.1566 157.531 53.1453C158.12 53.134 158.723 53.1283 159.34 53.1283H159.82C160.643 53.1283 161.326 53.2211 161.869 53.4066C162.411 53.5921 162.843 53.8451 163.163 54.1657C163.483 54.4861 163.708 54.8628 163.84 55.2956C163.971 55.7284 164.037 56.1866 164.037 56.6703V57.3449V57.3451ZM168.305 49.2491V60.5497H165.22V49.2491H168.305ZM158.86 55.827C158.323 55.827 157.814 55.8356 157.334 55.8524C156.854 55.8691 156.345 55.9112 155.808 55.9788V58.0366C156.38 58.0929 156.96 58.1323 157.548 58.1547C158.137 58.1771 158.614 58.1884 158.98 58.1884C159.563 58.1884 160.008 58.1603 160.317 58.104C160.625 58.0479 160.854 57.9664 161.003 57.8594C161.151 57.7526 161.237 57.6262 161.26 57.48C161.283 57.3338 161.294 57.1764 161.294 57.0076C161.294 56.839 161.282 56.6816 161.26 56.5354C161.237 56.3893 161.148 56.2655 160.994 56.1644C160.84 56.063 160.597 55.9816 160.265 55.9198C159.934 55.8578 159.465 55.8268 158.86 55.8268V55.827ZM170.705 59.0823C170.705 58.8687 170.734 58.6635 170.791 58.4667C170.848 58.2698 170.945 58.0983 171.083 57.9522C171.22 57.806 171.405 57.6907 171.64 57.6065C171.874 57.5221 172.168 57.48 172.523 57.48H172.66C173.014 57.48 173.308 57.5221 173.543 57.6065C173.777 57.6907 173.963 57.806 174.1 57.9522C174.237 58.0983 174.334 58.2701 174.391 58.4667C174.448 58.6635 174.477 58.8687 174.477 59.0823V59.2846C174.477 59.5095 174.448 59.7174 174.391 59.9088C174.334 60.1 174.237 60.2685 174.1 60.4147C173.963 60.5608 173.777 60.6762 173.543 60.7604C173.308 60.8446 173.014 60.8869 172.66 60.8869H172.523C172.168 60.8869 171.874 60.8448 171.64 60.7604C171.405 60.676 171.22 60.5608 171.083 60.4147C170.945 60.2685 170.848 60.0998 170.791 59.9088C170.734 59.7176 170.705 59.5095 170.705 59.2846V59.0823ZM188.534 53.6342C188.534 54.1965 188.463 54.7223 188.32 55.2112C188.177 55.7003 187.934 56.1277 187.591 56.4931C187.248 56.8585 186.782 57.1481 186.194 57.3617C185.605 57.5755 184.865 57.6823 183.974 57.6823H183.494C182.877 57.6823 182.274 57.6766 181.685 57.6653C181.097 57.654 180.522 57.6035 179.962 57.5135V60.5495H176.877V49.2488C177.859 49.1364 178.891 49.052 179.971 48.9959C181.051 48.9396 182.111 48.9115 183.151 48.9115H183.631C184.591 48.9115 185.385 49.0183 186.014 49.2319C186.642 49.4455 187.145 49.7351 187.522 50.1007C187.899 50.4661 188.162 50.8962 188.311 51.391C188.459 51.8858 188.534 52.4086 188.534 52.9596V53.6342H188.534ZM183.014 54.9836C183.62 54.9836 184.088 54.9415 184.42 54.8571C184.751 54.7727 184.994 54.6548 185.148 54.503C185.303 54.3512 185.391 54.1741 185.414 53.9718C185.437 53.7693 185.448 53.5446 185.448 53.2971C185.448 53.0496 185.437 52.822 185.414 52.6141C185.391 52.4061 185.305 52.2288 185.157 52.0826C185.008 51.9364 184.78 51.8213 184.471 51.7369C184.163 51.6525 183.717 51.6104 183.134 51.6104C182.768 51.6104 182.291 51.6217 181.703 51.6441C181.114 51.6667 180.534 51.7061 179.963 51.7622V54.832C180.5 54.8994 181.008 54.9417 181.488 54.9585C181.968 54.9754 182.477 54.9838 183.014 54.9838V54.9836ZM200.02 47.8995V49.0803H200.328C201.54 49.0803 202.545 49.1927 203.345 49.4176C204.145 49.6425 204.78 49.9489 205.248 50.3369C205.717 50.7247 206.048 51.1774 206.243 51.6946C206.437 52.2118 206.534 52.7627 206.534 53.3476V54.2247C206.534 54.8207 206.437 55.3775 206.243 55.8945C206.048 56.4117 205.717 56.8614 205.248 57.2438C204.78 57.6262 204.145 57.9298 203.345 58.1547C202.545 58.3796 201.54 58.492 200.328 58.492H200.02V60.5497H196.934V58.492H196.626C195.414 58.492 194.408 58.3796 193.608 58.1547C192.808 57.9298 192.174 57.6232 191.706 57.2354C191.237 56.8474 190.906 56.3949 190.711 55.8777C190.517 55.3605 190.42 54.8094 190.42 54.2247V53.3476C190.42 52.7629 190.517 52.212 190.711 51.6946C190.906 51.1774 191.237 50.7247 191.706 50.3369C192.174 49.9489 192.808 49.6425 193.608 49.4176C194.408 49.1927 195.414 49.0803 196.626 49.0803H196.934V47.8995H200.02ZM193.506 53.786C193.506 54.056 193.523 54.3118 193.557 54.5535C193.591 54.7953 193.717 55.0089 193.934 55.1944C194.151 55.38 194.491 55.5261 194.954 55.6329C195.417 55.7397 196.077 55.7931 196.934 55.7931V51.7955C196.077 51.7955 195.417 51.8489 194.954 51.9559C194.491 52.0627 194.151 52.2089 193.934 52.3944C193.717 52.5799 193.591 52.7935 193.557 53.0354C193.523 53.2772 193.506 53.5274 193.506 53.7858V53.786ZM203.448 53.786C203.448 53.5274 203.431 53.2772 203.397 53.0356C203.363 52.7937 203.237 52.5801 203.02 52.3946C202.803 52.2091 202.463 52.0627 202 51.9561C201.537 51.8493 200.877 51.7957 200.02 51.7957V55.7933C200.877 55.7933 201.537 55.7399 202 55.6331C202.463 55.5263 202.803 55.38 203.02 55.1947C203.237 55.0091 203.363 54.7953 203.397 54.5537C203.431 54.312 203.448 54.0562 203.448 53.7863V53.786Z" fill="white"/>
<path d="M7.45946 1.75525H25.8761V3.18207H8.18455V14.9995H6.73438V1.75525H7.45946ZM40.1846 1.75525H51.3327V14.9995H49.8826V3.18207H40.1846V1.75525ZM51.3327 38.4865V60.49H6.73438V38.4865H8.18455V59.0632H49.8826V38.4865H51.3327Z" fill="white"/>
</svg>
