<svg width="130" height="41" viewBox="0 0 130 41" fill="none" xmlns="http://www.w3.org/2000/svg">
<path fill-rule="evenodd" clip-rule="evenodd" d="M23.4072 0.911133C22.3561 2.94544 23.1898 4.16599 23.2145 6.34559C23.2333 8.01033 22.6047 9.73121 21.395 10.8087C20.883 11.2652 20.0482 11.6292 19.1068 11.691C18.0218 11.7622 18.0918 11.6301 17.9344 11.2567C17.4023 9.99511 17.8949 8.6397 18.5607 7.59203C19.1885 6.60354 19.3534 6.59086 19.955 5.86614C19.0774 6.13175 17.517 7.53894 17.086 8.5166C15.9426 11.1112 17.7869 13.0705 18.6815 15.3454C19.4357 17.2626 19.4833 19.5696 18.9057 21.6284C18.5822 22.7808 18.2809 23.3506 18.3561 24.6892C18.4173 25.776 18.6784 26.6832 19.028 27.5551C22.0708 27.3996 27.1488 24.5738 26.2682 20.9833C25.4901 17.58 26.5638 15.1115 29.5604 13.2549C30.6256 12.5946 33.0435 11.6271 34.3316 11.5271C33.7559 12.6161 33.491 13.5495 33.6057 14.8632C33.7233 16.2092 34.1605 17.1076 33.8857 18.5892C33.6789 19.7034 32.9971 20.6293 32.2962 21.1349C31.5711 21.6585 30.1766 22.1991 29.0123 21.9686C28.9184 20.7551 29.3391 19.4485 29.7946 18.4848C30.5234 16.9421 30.8029 16.8461 31.3916 15.7994C30.5587 16.4649 30.7967 16.2181 30.132 16.9761C29.9779 17.1518 29.9167 17.2263 29.7912 17.413C29.3694 18.0392 28.976 18.7351 28.7302 19.5757C27.2487 24.6484 26.0846 25.3622 23.8837 26.6945C21.6133 28.069 19.1381 28.9316 18.7776 31.7654C18.5412 33.626 18.6787 36.2868 19.241 37.66L18.0704 38.0116C17.5172 37.3885 17.5322 37.9364 17.3325 37.7543C16.3803 34.3584 18.2279 29.2698 17.1267 25.3974C16.7675 24.1339 16.0438 22.9288 15.3509 22.0873C13.9788 20.4212 12.6613 18.9308 10.4665 19.9638C7.06658 21.5642 3.74226 21.407 1.54227 18.1054C1.0873 17.4223 0.08808 15.6076 0 14.5716C1.78566 14.9454 2.33445 14.5881 3.84037 14.0084C5.10757 13.5203 6.1938 13.0088 7.77189 13.2155C9.29023 13.4147 10.1869 13.908 11.0735 14.6433C11.7376 15.1942 12.7417 16.7885 12.7717 17.5938C11.8635 17.3232 11.4528 17.2385 10.2921 17.7013C9.50529 18.0149 8.94433 18.2702 7.9983 18.4191C6.64463 18.6321 5.35965 18.4349 4.20178 17.7987C3.68867 17.517 3.47441 17.234 3.28863 17.1566C3.52721 17.7006 4.17398 18.3248 4.56305 18.6342C5.77946 19.6021 7.33136 19.5852 8.80078 19.2146C9.49754 19.0392 10.1269 18.741 10.81 18.5715C11.8851 18.3048 13.1269 18.6461 13.9502 19.2388C14.8079 19.8561 15.3524 20.3819 15.9981 21.1523C16.1777 21.367 16.3647 21.6119 16.5731 21.8925L17.1193 22.6616C17.6573 21.8817 18.1405 20.3537 18.2911 19.2783C18.4743 17.9688 18.2201 16.4742 17.712 15.4111C17.0002 13.9229 15.2187 12.4225 14.4764 9.60626C13.6785 6.57792 15.1551 4.54374 16.7769 3.38844C18.3533 2.26588 21.0026 1.21439 23.4074 0.911133H23.4072Z" fill="#67AF28"/>
<path d="M46.2588 18.6171V25.7452H44.321V20.3193H40.7683V25.7452H38.8304V18.6171H46.2589H46.2588ZM53.4828 18.6171H55.4206V25.7452H53.4828V21.1705L49.7039 25.7452H47.766V18.6171H49.7039V23.1918L53.4828 18.6171ZM59.1888 25.7452V20.3193H56.3896V18.6171H63.9365V20.3193H61.1266V25.7452H59.1889H59.1888ZM64.8947 21.9046C64.8947 21.4222 64.9558 20.9682 65.0777 20.5427C65.1997 20.1173 65.4133 19.7465 65.7183 19.431C66.0234 19.1153 66.4342 18.8654 66.951 18.6809C67.4677 18.4965 68.1173 18.4043 68.8997 18.4043H69.2872C70.0696 18.4043 70.7191 18.4965 71.2359 18.6809C71.7526 18.8653 72.1635 19.1153 72.4687 19.431C72.7737 19.7466 72.9872 20.1173 73.1093 20.5427C73.2313 20.9682 73.2922 21.4222 73.2922 21.9046V22.4578C73.2922 22.9402 73.2312 23.3942 73.1093 23.8197C72.9872 24.2452 72.7737 24.6159 72.4687 24.9315C72.1635 25.2471 71.7528 25.497 71.2359 25.6815C70.7192 25.8659 70.0696 25.9581 69.2872 25.9581H68.8997C68.1173 25.9581 67.4679 25.8659 66.951 25.6815C66.4343 25.4972 66.0234 25.2471 65.7183 24.9315C65.4133 24.6158 65.1997 24.2452 65.0777 23.8197C64.9557 23.3942 64.8947 22.9402 64.8947 22.4578V21.9046ZM66.8326 22.1811C66.8326 22.4506 66.8452 22.7113 66.8702 22.9632C66.8953 23.2149 66.9779 23.4366 67.1178 23.6281C67.2578 23.8196 67.4803 23.972 67.7853 24.0856C68.0903 24.1991 68.5264 24.2559 69.0934 24.2559C69.6604 24.2559 70.0964 24.1991 70.4014 24.0856C70.7065 23.972 70.9289 23.8196 71.0689 23.6281C71.2088 23.4366 71.2914 23.2149 71.3165 22.9632C71.3417 22.7113 71.3541 22.4507 71.3541 22.1811C71.3541 21.9117 71.3415 21.6527 71.3165 21.4045C71.2914 21.1562 71.2088 20.9364 71.0689 20.7449C70.9289 20.5534 70.7064 20.401 70.4014 20.2874C70.0964 20.1738 69.6602 20.1171 69.0934 20.1171C68.5264 20.1171 68.0903 20.1738 67.7853 20.2874C67.4802 20.401 67.2578 20.5534 67.1178 20.7449C66.9779 20.9364 66.8953 21.1563 66.8702 21.4045C66.845 21.6527 66.8326 21.9117 66.8326 22.1811ZM78.6536 24.2877L76.6297 21.4896V25.7452H74.6918V18.6171H76.6297L79.1488 22.2662L81.668 18.6171H83.6058V25.7452H81.668V21.4896L79.644 24.2877H78.6535H78.6536ZM87.0512 18.6171V21.3832H90.8192V18.6171H92.7571V25.7452H90.8192V23.0854H87.0512V25.7452H85.1133V18.6171H87.0512ZM99.9811 18.6171H101.919V25.7452H99.9811V21.1705L96.2023 25.7452H94.2644V18.6171H96.2023V23.1918L99.9811 18.6171ZM105.364 18.6171V21.3832H106.602L108.949 18.6171H110.844V19.0426L108.185 22.1811L110.844 25.3196V25.7452H108.949L106.688 23.0854H105.364V25.7452H103.426V18.6171H105.364ZM115.592 21.9153V23.4047H111.813V21.9153H115.592ZM38.7227 34.3522C38.7227 33.8699 38.7837 33.4159 38.9056 32.9904C39.0277 32.5649 39.2358 32.1942 39.5301 31.8786C39.8244 31.563 40.2227 31.3131 40.7251 31.1285C41.2275 30.9442 41.8592 30.852 42.62 30.852H43.0076C43.4955 30.852 43.9692 30.8821 44.4286 30.9423C44.888 31.0027 45.3401 31.0896 45.7851 31.203V32.9373C45.534 32.8663 45.2809 32.806 45.0261 32.7564C44.7712 32.7068 44.52 32.666 44.2724 32.6341C44.0247 32.6022 43.7879 32.5791 43.5618 32.5649C43.3358 32.5507 43.1331 32.5437 42.9536 32.5437C42.3937 32.5437 41.9613 32.5952 41.6563 32.6979C41.3513 32.8008 41.1288 32.9444 40.9888 33.1288C40.8489 33.3132 40.7663 33.5331 40.7413 33.7884C40.7162 34.0438 40.7036 34.324 40.7036 34.6289C40.7036 34.9339 40.7162 35.2141 40.7413 35.4695C40.7664 35.7248 40.8489 35.9464 40.9888 36.1344C41.1288 36.3223 41.3513 36.4678 41.6563 36.5707C41.9614 36.6734 42.3938 36.7249 42.9536 36.7249C43.1329 36.7249 43.3357 36.7178 43.5618 36.7037C43.7879 36.6895 44.0248 36.6666 44.2724 36.6345C44.52 36.6026 44.7712 36.56 45.0261 36.5069C45.2809 36.4536 45.5338 36.3916 45.7851 36.3206V38.0655C45.3401 38.1719 44.8879 38.2552 44.4286 38.3156C43.9692 38.3759 43.4955 38.4059 43.0076 38.4059H42.62C41.8592 38.4059 41.2275 38.3137 40.7251 38.1293C40.2227 37.945 39.8244 37.6949 39.5301 37.3793C39.2358 37.0636 39.0277 36.693 38.9056 36.2675C38.7836 35.842 38.7227 35.388 38.7227 34.9057V34.3524V34.3522ZM46.7756 38.1929V37.7673L49.9839 31.0647H51.9217L55.13 37.7673V38.1929H53.3859L52.7616 36.8099H49.1333L48.5197 38.1929H46.7756ZM52.0511 35.2139L50.9529 32.7776L49.8548 35.2139H52.0511ZM62.7633 31.0647V33.8309H63.6783L66.0253 31.0647H67.92V31.4903L65.2608 34.6288L67.92 37.7673V38.1929H66.0253L63.7644 35.533H62.7631V38.1929H60.8253V35.533H59.8133L57.5632 38.1929H55.6684V37.7673L58.3276 34.6288L55.6684 31.4903V31.0647H57.5632L59.9101 33.8309H60.8253V31.0647H62.7631H62.7633ZM75.8976 32.767H70.9345V33.8309H74.821V35.5332H70.9345V36.4908H75.8976V38.193H68.9966V31.0649H75.8976V32.7671V32.767ZM79.1167 31.0647V33.8309H82.8848V31.0647H84.8227V38.1929H82.8848V35.533H79.1167V38.1929H77.1789V31.0647H79.1167ZM93.7585 40.1079H93.3278V38.1929H86.33V31.0647H88.2678V36.4906H92.0359V31.0647H93.9738V36.4906H95.0504V39.3631L93.7585 40.1079ZM103.017 36.1715C103.017 36.4836 102.972 36.7743 102.883 37.0439C102.793 37.3134 102.64 37.5492 102.425 37.7513C102.21 37.9535 101.917 38.1131 101.548 38.2301C101.178 38.3471 100.713 38.4057 100.153 38.4057H99.852C99.1989 38.4057 98.5331 38.388 97.8549 38.3526C97.1766 38.317 96.5289 38.2638 95.9117 38.1929V31.0647H97.8496V33.6181C98.2012 33.5613 98.5618 33.5295 98.9315 33.5224C99.3011 33.5152 99.6798 33.5117 100.067 33.5117H100.369C100.886 33.5117 101.315 33.5702 101.655 33.6872C101.996 33.8042 102.267 33.9638 102.468 34.166C102.669 34.3681 102.811 34.6057 102.893 34.8787C102.976 35.1517 103.017 35.4407 103.017 35.7458V36.1714V36.1715ZM105.698 31.0647V38.1929H103.76V31.0647H105.698ZM99.7658 35.2139C99.4285 35.2139 99.109 35.2193 98.8076 35.2299C98.5061 35.2405 98.1868 35.267 97.8495 35.3097V36.6076C98.2083 36.6432 98.5725 36.668 98.9422 36.6821C99.3118 36.6963 99.6115 36.7034 99.8412 36.7034C100.207 36.7034 100.487 36.6857 100.681 36.6502C100.875 36.6148 101.018 36.5634 101.112 36.4959C101.205 36.4285 101.259 36.3488 101.273 36.2566C101.288 36.1644 101.295 36.0651 101.295 35.9586C101.295 35.8523 101.287 35.753 101.273 35.6608C101.259 35.5686 101.203 35.4905 101.106 35.4267C101.009 35.3628 100.857 35.3114 100.649 35.2724C100.44 35.2333 100.146 35.2138 99.7658 35.2138V35.2139ZM107.205 37.2673C107.205 37.1325 107.223 37.0031 107.259 36.8789C107.295 36.7548 107.356 36.6466 107.442 36.5544C107.528 36.4622 107.645 36.3894 107.792 36.3363C107.939 36.2831 108.124 36.2566 108.346 36.2566H108.433C108.655 36.2566 108.84 36.2831 108.987 36.3363C109.134 36.3894 109.251 36.4622 109.337 36.5544C109.423 36.6466 109.484 36.7549 109.52 36.8789C109.556 37.0031 109.574 37.1325 109.574 37.2673V37.3948C109.574 37.5367 109.556 37.6679 109.52 37.7886C109.484 37.9092 109.423 38.0155 109.337 38.1077C109.251 38.1999 109.134 38.2727 108.987 38.3257C108.84 38.3788 108.655 38.4055 108.433 38.4055H108.346C108.124 38.4055 107.939 38.379 107.792 38.3257C107.645 38.2725 107.528 38.1999 107.442 38.1077C107.356 38.0155 107.295 37.909 107.259 37.7886C107.223 37.668 107.205 37.5367 107.205 37.3948V37.2673ZM118.402 33.8308C118.402 34.1854 118.357 34.5171 118.267 34.8255C118.178 35.134 118.025 35.4036 117.81 35.6341C117.594 35.8646 117.302 36.0472 116.932 36.1819C116.563 36.3168 116.098 36.3842 115.538 36.3842H115.236C114.849 36.3842 114.47 36.3806 114.101 36.3735C113.731 36.3663 113.37 36.3345 113.019 36.2777V38.1927H111.081V31.0646C111.698 30.9937 112.346 30.9405 113.024 30.9051C113.702 30.8695 114.368 30.8518 115.021 30.8518H115.323C115.925 30.8518 116.424 30.9192 116.819 31.0539C117.214 31.1886 117.53 31.3713 117.766 31.6019C118.003 31.8324 118.168 32.1037 118.262 32.4158C118.355 32.7279 118.402 33.0577 118.402 33.4052V33.8308H118.402ZM114.935 34.6819C115.315 34.6819 115.61 34.6554 115.818 34.6021C116.026 34.5489 116.179 34.4745 116.276 34.3788C116.372 34.283 116.428 34.1713 116.442 34.0437C116.457 33.916 116.464 33.7743 116.464 33.6181C116.464 33.462 116.457 33.3184 116.442 33.1873C116.428 33.0561 116.374 32.9443 116.281 32.8521C116.188 32.7599 116.044 32.6872 115.85 32.634C115.657 32.5808 115.377 32.5542 115.011 32.5542C114.781 32.5542 114.481 32.5614 114.112 32.5755C113.742 32.5898 113.378 32.6146 113.019 32.65V34.5863C113.356 34.6288 113.676 34.6555 113.977 34.6661C114.279 34.6768 114.598 34.682 114.935 34.682V34.6819ZM125.615 30.2135V30.9583H125.809C126.57 30.9583 127.201 31.0292 127.704 31.1711C128.206 31.3129 128.604 31.5062 128.899 31.7509C129.193 31.9955 129.401 32.2811 129.523 32.6073C129.645 32.9336 129.706 33.2811 129.706 33.65V34.2032C129.706 34.5791 129.645 34.9304 129.523 35.2565C129.401 35.5827 129.193 35.8664 128.899 36.1076C128.605 36.3488 128.206 36.5403 127.704 36.6821C127.201 36.824 126.57 36.8949 125.809 36.8949H125.615V38.1929H123.677V36.8949H123.484C122.723 36.8949 122.091 36.824 121.589 36.6821C121.086 36.5403 120.688 36.3469 120.394 36.1023C120.099 35.8576 119.891 35.5721 119.769 35.2459C119.647 34.9197 119.586 34.572 119.586 34.2032V33.65C119.586 33.2812 119.647 32.9337 119.769 32.6073C119.891 32.2811 120.099 31.9955 120.394 31.7509C120.688 31.5062 121.086 31.3129 121.589 31.1711C122.091 31.0292 122.723 30.9583 123.484 30.9583H123.677V30.2135H125.615ZM121.524 33.9265C121.524 34.0968 121.535 34.2582 121.556 34.4106C121.578 34.5632 121.657 34.6979 121.793 34.8149C121.93 34.9319 122.143 35.0241 122.434 35.0915C122.724 35.1589 123.139 35.1925 123.677 35.1925V32.671C123.139 32.671 122.724 32.7047 122.434 32.7722C122.143 32.8395 121.93 32.9317 121.793 33.0487C121.657 33.1658 121.578 33.3005 121.556 33.453C121.535 33.6056 121.524 33.7634 121.524 33.9264V33.9265ZM127.768 33.9265C127.768 33.7634 127.758 33.6056 127.736 33.4532C127.715 33.3006 127.636 33.1659 127.499 33.0489C127.363 32.9318 127.149 32.8395 126.859 32.7723C126.568 32.7049 126.153 32.6711 125.615 32.6711V35.1927C126.153 35.1927 126.568 35.159 126.859 35.0916C127.149 35.0243 127.363 34.9319 127.499 34.815C127.636 34.698 127.715 34.5632 127.736 34.4107C127.758 34.2583 127.768 34.0969 127.768 33.9267V33.9265Z" fill="#67AF28"/>
<path d="M4.68584 1.10718H16.2519V2.00717H5.14121V9.46128H4.23047V1.10718H4.68584ZM25.2379 1.10718H32.2391V9.46128H31.3284V2.00717H25.2379V1.10718ZM32.2391 24.2761V38.1553H4.23047V24.2761H5.14121V37.2553H31.3284V24.2761H32.2391Z" fill="#67AF28"/>
</svg>
